<svg width="12" height="12" viewBox="0 0 12 12" fill="none" xmlns="http://www.w3.org/2000/svg">
<circle cx="6" cy="6" r="6" fill="#0049C1"/>
<path d="M6.58129 8.23635C6.30027 8.49912 5.85893 8.48431 5.59616 8.20329L2.97799 5.40326C2.71522 5.12224 2.73003 4.6809 3.01105 4.41813C3.29207 4.15536 3.73341 4.17018 3.99618 4.4512L6.61435 7.25122C6.87712 7.53225 6.86231 7.97358 6.58129 8.23635Z" fill="white"/>
<path d="M9.33785 5.2883L6.75561 8.1215C6.49645 8.40585 6.05534 8.42629 5.77099 8.16713C5.48664 7.90797 5.46619 7.46685 5.72536 7.1825L8.3076 4.3493C8.56676 4.06495 9.00787 4.04451 9.29222 4.30367C9.57658 4.56284 9.59702 5.00395 9.33785 5.2883Z" fill="white"/>
</svg>
