<svg width="14" height="14" viewBox="0 0 14 14" fill="none" xmlns="http://www.w3.org/2000/svg">
<g clip-path="url(#clip0_2001_403)">
<path d="M7 0.875C10.4125 0.875 13.125 3.5875 13.125 7C13.125 10.4125 10.4125 13.125 7 13.125C3.5875 13.125 0.875 10.4125 0.875 7C0.875 3.5875 3.5875 0.875 7 0.875ZM7 0C3.15 0 0 3.15 0 7C0 10.85 3.15 14 7 14C10.85 14 14 10.85 14 7C14 3.15 10.85 0 7 0Z" fill="#0049C1"/>
<path d="M5.6875 8.75C5.6875 8.225 5.775 7.7875 5.8625 7.4375C6.0375 7.0875 6.2125 6.7375 6.5625 6.475C6.9125 6.2125 7.175 5.8625 7.2625 5.6875C7.35 5.5125 7.525 5.25 7.525 4.9875C7.525 4.2875 7.175 3.9375 6.5625 3.9375C6.3 4.025 6.125 4.1125 5.95 4.2875C5.775 4.4625 5.6875 4.725 5.6875 5.075H3.9375C3.9375 4.2875 4.2 3.675 4.725 3.325C5.1625 2.8 5.775 2.625 6.65 2.625C7.525 2.625 8.1375 2.8 8.575 3.2375C9.0125 3.675 9.275 4.2 9.275 4.9875C9.275 5.3375 9.1875 5.6875 9.0125 5.95C8.8375 6.2125 8.575 6.5625 8.225 6.9125L7.7875 7.35C7.525 7.7 7.35 7.9625 7.2625 8.4V8.75H5.6875ZM5.5125 10.5875C5.5125 10.325 5.6 10.0625 5.775 9.8875C5.95 9.7125 6.2125 9.625 6.475 9.625C6.7375 9.625 7 9.7125 7.175 9.8875C7.35 10.0625 7.4375 10.2375 7.4375 10.5875C7.4375 10.9375 7.35 11.1125 7.175 11.2C7 11.375 6.7375 11.4625 6.475 11.4625C6.2125 11.4625 5.95 11.375 5.775 11.2C5.6 11.025 5.5125 10.85 5.5125 10.5875Z" fill="#0049C1"/>
</g>
<defs>
<clipPath id="clip0_2001_403">
<rect width="14" height="14" fill="white"/>
</clipPath>
</defs>
</svg>
